{"title":"Buckeye_Blitz_1-3-2011_720p","uid":6082239,"size":1545262864,"categoryP":"video","categoryS":"hd___tv_shows","magnet":"?xt=urn:btih:6c591f4e8c5c57d08d7edf3183abfdc7d41f740e&amp;dn=Buckeye_Blitz_1-3-2011_720p&amp;tr=udp%3A%2F%2Ftracker.openbittorrent.com%3A80&amp;tr=udp%3A%2F%2Fopen.demonii.com%3A1337&amp;tr=udp%3A%2F%2Ftracker.coppersurfer.tk%3A6969&amp;tr=udp%3A%2F%2Fexodus.desync.com%3A6969","seeders":0,"leechers":0,"uploader":"thetorrentlord","files":2,"time":1294163071,"description":"Special on the 2011 Sugar Bowl. Compressed with SUPER from HD source. GO BUCKS!!!!! SLAUGHTER THE HOGS!!!!!! \t      ******************************************************************************************************************\t\t\t\t\t\t\t\t\t\t\t\t\t\t\t****GO BUCKS*************************GO BUCKS*************GO BUCKS*******************GO BUCKS*********************\t\t\t\t\t\t\t\t\t\t\t\t\t\t\tBuckeye_Blitz_20110103.avi\nFormat                           : AVI\nFormat/Info                      : Audio Video Interleave\nFormat profile                   : OpenDML\nFile size                        : 1.44 GiB\nDuration                         : 45mn 48s\nOverall bit rate                 : 4 499 Kbps\nMovie name                       : Buckeye_Blitz_20110103.mpg\nDirector                         : created.with.SUPER(C).v2009.bld.35\nWriting application              : SUPER(C)   \n\nVideo\nID                               : 0\nFormat                           : MPEG-4 Visual\nFormat profile                   : Simple@L3\nFormat settings, BVOP            : No\nFormat settings, QPel            : No\nFormat settings, GMC             : No warppoints\nFormat settings, Matrix          : Default (H.263)\nCodec ID                         : XVID\nCodec ID/Hint                    : XviD\nDuration                         : 45mn 47s\nBit rate                         : 4 371 Kbps\nWidth                            : 1 280 pixels\nHeight                           : 720 pixels\nDisplay aspect ratio             : 16:9\nFrame rate                       : 29.970 fps\nColor space                      : YUV\nChroma subsampling               : 4:2:0\nBit depth                        : 8 bits\nScan type                        : Progressive\nBits/(Pixel*Frame)               : 0.158\nStream size                      : 1.40 GiB (97%)\nWriting library                  : XviD 1.1.2 (UTC 2006-11-01)\n\nAudio\nID                               : 1\nFormat                           : MPEG Audio\nFormat version                   : Version 1\nFormat profile                   : Layer 3\nMode                             : Joint stereo\nMode extension                   : MS Stereo\nCodec ID                         : 55\nCodec ID/Hint                    : MP3\nDuration                         : 45mn 48s\nBit rate mode                    : Constant\nBit rate                         : 112 Kbps\nChannel(s)                       : 2 channels\nSampling rate                    : 48.0 KHz\nStream size                      : 36.7 MiB (2%)\nAlignment                        : Aligned on interleaves\nInterleave, duration             : 24 ms (0.72 video frame)\nInterleave, preload duration     : 24 ms\n\n","torrent":{"xt":"urn:btih:6c591f4e8c5c57d08d7edf3183abfdc7d41f740e","amp;dn":"Buckeye_Blitz_1-3-2011_720p","amp;tr":["udp%3A%2F%2Ftracker.openbittorrent.com%3A80","udp%3A%2F%2Fopen.demonii.com%3A1337","udp%3A%2F%2Ftracker.coppersurfer.tk%3A6969","udp%3A%2F%2Fexodus.desync.com%3A6969"],"infoHash":"6c591f4e8c5c57d08d7edf3183abfdc7d41f740e","infoHashBuffer":{"type":"Buffer","data":[108,89,31,78,140,92,87,208,141,126,223,49,131,171,253,199,212,31,116,14]},"announce":[],"urlList":[]}}